<?xml version="1.0" standalone="no"?>
<!DOCTYPE svg PUBLIC "-//W3C//DTD SVG 20010904//EN"
 "http://www.w3.org/TR/2001/REC-SVG-20010904/DTD/svg10.dtd">
<svg version="1.0" xmlns="http://www.w3.org/2000/svg"
 width="400.000000pt" height="400.000000pt" viewBox="0 0 400.000000 400.000000"
 preserveAspectRatio="xMidYMid meet">
<metadata>
Created by potrace 1.16, written by Peter Selinger 2001-2019
</metadata>
<g transform="translate(0.000000,400.000000) scale(0.100000,-0.100000)"
fill="#000000" stroke="none">
<path d="M1940 3607 l-55 -62 -30 -177 -29 -178 -53 -22 c-29 -12 -53 -25 -53
-29 0 -4 13 -10 29 -14 l28 -6 44 -317 45 -317 39 -14 c51 -18 139 -18 190 0
l39 14 45 317 44 317 28 6 c16 4 29 10 29 14 0 4 -24 17 -53 29 l-53 22 -29
178 -30 177 -54 60 c-30 33 -57 61 -61 62 -3 1 -30 -26 -60 -60z"/>
<path d="M520 3183 c-57 -68 -98 -124 -95 -133 2 -8 18 -96 35 -195 l31 -180
96 -145 c52 -80 102 -155 112 -166 9 -12 121 -81 250 -153 l233 -131 79 13
c44 8 81 16 84 18 2 2 25 96 50 209 26 113 51 209 55 214 6 6 211 -46 278 -72
16 -6 17 -22 -24 376 -23 231 -24 255 -10 277 l16 24 -32 -11 c-29 -10 -33 -9
-65 25 l-33 37 -300 35 c-165 19 -313 35 -328 35 -27 0 -32 -8 -84 -126 l-56
-127 51 -123 50 -124 99 -77 c94 -73 98 -77 81 -93 -10 -9 -85 -67 -166 -129
-110 -83 -153 -110 -167 -106 -25 8 -68 62 -159 203 l-74 112 -38 192 -39 192
47 61 c26 33 69 88 96 123 84 107 32 68 -73 -55z"/>
<path d="M3407 3238 c27 -35 70 -90 96 -123 l47 -61 -39 -192 -38 -192 -74
-112 c-91 -141 -134 -195 -159 -203 -14 -4 -57 23 -167 106 -81 62 -156 120
-166 129 -17 16 -13 20 81 93 l99 77 50 124 51 123 -56 127 c-52 118 -57 126
-84 126 -15 0 -163 -16 -328 -35 l-300 -35 -33 -37 c-32 -34 -36 -35 -65 -25
l-32 11 16 -24 c14 -22 13 -46 -10 -277 -41 -398 -40 -382 -24 -376 67 26 272
78 278 72 4 -5 29 -101 55 -214 25 -113 48 -207 50 -209 3 -2 40 -10 84 -18
l79 -13 233 131 c129 72 241 141 250 153 10 11 60 86 112 166 l96 145 31 180
c17 99 33 187 35 195 3 9 -38 65 -95 133 -105 123 -157 162 -73 55z"/>
<path d="M1900 2252 c-94 -26 -94 -26 -128 -141 -18 -58 -60 -198 -95 -311
l-63 -205 166 -430 166 -430 54 0 54 0 166 430 166 430 -63 205 c-35 113 -77
252 -94 310 -31 104 -32 106 -73 124 -44 19 -209 31 -256 18z"/>
</g>
</svg>
